<?xml version="1.0" encoding="UTF-8" standalone="no"?>
<!-- Created with Inkscape (http://www.inkscape.org/) -->

<svg
   xmlns:dc="http://purl.org/dc/elements/1.1/"
   xmlns:cc="http://creativecommons.org/ns#"
   xmlns:rdf="http://www.w3.org/1999/02/22-rdf-syntax-ns#"
   xmlns:svg="http://www.w3.org/2000/svg"
   xmlns="http://www.w3.org/2000/svg"
   xmlns:sodipodi="http://sodipodi.sourceforge.net/DTD/sodipodi-0.dtd"
   xmlns:inkscape="http://www.inkscape.org/namespaces/inkscape"
   width="744.09448819"
   height="1052.3622047"
   id="svg2"
   version="1.1"
   inkscape:version="0.48.2 r9819">
  <defs
     id="defs4" />
  <sodipodi:namedview
     id="base"
     pagecolor="#ffffff"
     bordercolor="#666666"
     borderopacity="1.0"
     inkscape:pageopacity="0.0"
     inkscape:pageshadow="2"
     inkscape:zoom="2.8"
     inkscape:cx="534.61871"
     inkscape:cy="785.3834"
     inkscape:document-units="px"
     inkscape:current-layer="g12"
     showgrid="false"
     inkscape:window-width="1280"
     inkscape:window-height="753"
     inkscape:window-x="-4"
     inkscape:window-y="-4"
     inkscape:window-maximized="1" />
  <metadata
     id="metadata7">
    <rdf:RDF>
      <cc:Work
         rdf:about="">
        <dc:format>image/svg+xml</dc:format>
        <dc:type
           rdf:resource="http://purl.org/dc/dcmitype/StillImage" />
        <dc:title></dc:title>
      </cc:Work>
    </rdf:RDF>
  </metadata>
  <g
     inkscape:label="Layer 1"
     inkscape:groupmode="layer"
     id="layer1">
    <g
       transform="matrix(0.125,0,0,-0.125,74.412029,641.86302)"
       id="g12">
      <path
         d="m 1807.12,750.266 c -223.2,-884.161 -1573.202,-887.043 -1794.2411,0 0,271.434 0,271.434 0,271.434 l 1794.2411,0 c 0,0 0,0 0,-271.434 z"
         inkscape:connector-curvature="0"
         id="path14"
         style="fill:none;stroke:#231f20;stroke-width:20.00099945;stroke-linecap:butt;stroke-linejoin:miter;stroke-miterlimit:4;stroke-opacity:1;stroke-dasharray:none" />
      <path
         d="m 12.8789,1064.9 1794.24,0 0,933.121 -1794.24,0 0,-933.121 z"
         inkscape:connector-curvature="0"
         id="path16"
         style="fill:none;stroke:#231f20;stroke-width:20.00099945;stroke-linecap:butt;stroke-linejoin:miter;stroke-miterlimit:4;stroke-opacity:1;stroke-dasharray:none" />
      <path
         d="m 61.8398,1119.62 1699.2,0 0,828.719 -1699.2,0 0,-828.719 z"
         inkscape:connector-curvature="0"
         id="path18"
         style="fill:#5f8fca;fill-opacity:1;fill-rule:evenodd;stroke:none" />
      <path
         d="m 61.8398,1119.62 1699.2,0 0,828.719 -1699.2,0 0,-828.719 z"
         inkscape:connector-curvature="0"
         id="path20"
         style="fill:none;stroke:#5f8fca;stroke-width:10.0010004;stroke-linecap:butt;stroke-linejoin:miter;stroke-miterlimit:4;stroke-opacity:1;stroke-dasharray:none" />
      <path
         d="m 1758.88,771.859 c -216.72,-843.1168 -1477.439,-840.2379 -1695.6027,0 0,205.926 0,205.926 0,205.926 l 1695.6027,0 c 0,0 1.44,-5.039 0,-205.926"
         inkscape:connector-curvature="0"
         id="path22"
         style="fill:#eb222c;fill-opacity:1;fill-rule:evenodd;stroke:none" />
      <path
         d="m 1758.88,771.859 c -216.72,-843.1168 -1477.439,-840.2379 -1695.6027,0 0,205.926 0,205.926 0,205.926 l 1695.6027,0 c 0,0 1.44,-5.039 0,-205.926 z"
         inkscape:connector-curvature="0"
         id="path24"
         style="fill:none;stroke:#eb222c;stroke-width:10.0010004;stroke-linecap:butt;stroke-linejoin:miter;stroke-miterlimit:4;stroke-opacity:1;stroke-dasharray:none" />
      <path
         d="m 1065.52,380.902 0,35.282 c 6.48,0 11.52,0.714 15.12,1.437 8.64,1.441 15.84,4.324 21.6,8.641 5.76,4.32 10.08,10.8 13.68,20.16 3.6,9.359 5.04,21.601 5.04,38.16 0,15.84 -1.44,28.078 -5.04,36.723 -3.6,8.636 -8.64,15.117 -15.12,20.156 -6.48,5.043 -14.4,7.918 -23.76,10.082 -2.88,0 -6.48,0.719 -11.52,0.719 l 0,36 c 15.84,0 28.08,-1.442 37.44,-3.598 15.12,-3.605 28.08,-10.082 38.88,-19.445 11.52,-8.637 19.44,-20.157 25.2,-33.836 5.76,-12.961 8.64,-29.524 8.64,-48.961 0,-17.281 -2.88,-31.68 -7.92,-43.922 -6.48,-15.117 -15.84,-27.355 -28.08,-36.719 -9.36,-7.199 -21.6,-12.957 -36.72,-16.562 -10.08,-2.875 -22.32,-4.317 -37.44,-4.317 l 0,0 z m 154.8,-0.722 0,208.082 192.24,0 0,-35.278 -139.68,0 0,-46.086 130.32,0 0,-34.554 -130.32,0 0,-56.879 144.72,0 0,-35.285 -197.28,0 z m -552.961,0 -56.882,0 -23.036,47.519 -51.839,0 0,35.285 35.277,0 -35.277,76.317 0,48.961 28.078,0 103.679,-208.082 0,0 z m 398.161,208.082 0,-36 c -7.92,0.722 -18.72,0.722 -31.68,0.722 l -23.76,0 0,-137.519 38.88,0 c 6.48,0 12.24,0 16.56,0.719 l 0,-35.282 c -2.88,0 -5.76,-0.722 -9.36,-0.722 l -98.64,0 0,208.082 95.76,0 c 4.32,0 8.64,0 12.24,0 l 0,0 z m -370.797,0 52.558,0 0,-112.321 c 0,-18 0.715,-29.519 2.157,-34.558 2.164,-8.637 7.921,-15.84 15.839,-20.879 8.645,-5.039 20.161,-7.922 34.563,-7.922 15.121,0 26.64,2.883 33.84,7.922 7.922,4.32 12.238,10.801 13.679,17.281 1.438,7.195 2.161,19.438 2.161,35.996 l 0,114.481 52.558,0 0,-108.719 c 0,-25.203 -1.437,-43.199 -4.32,-53.281 -2.156,-10.078 -7.918,-18.723 -15.117,-25.918 -7.918,-7.203 -18.004,-12.961 -30.961,-17.282 -12.961,-4.32 -29.524,-5.761 -49.684,-5.761 -25.195,0 -43.914,2.164 -56.879,6.48 -12.961,4.321 -23.039,10.801 -30.238,18 -7.199,7.199 -12.238,15.117 -14.402,23.043 -3.598,11.52 -5.754,29.516 -5.754,52.559 l 0,110.879 z m -159.121,-160.563 -51.844,0 -21.602,-47.519 -55.437,0 101.519,208.082 27.364,0 0,-48.961 -0.723,0.719 -35.281,-77.036 36.004,0 0,-35.285"
         inkscape:connector-curvature="0"
         id="path26"
         style="fill:#231f20;fill-opacity:1;fill-rule:evenodd;stroke:none" />
      <path
         d="m 718.48,1856.18 31.68,-84.96 27.36,0 -13.68,28.8 42.476,-28.8 48.961,28.8 -18.718,-28.8 29.519,0 43.922,84.96 -102.242,-47.52 -89.278,47.52"
         inkscape:connector-curvature="0"
         id="path28"
         style="fill:#000000;fill-opacity:1;fill-rule:evenodd;stroke:none" />
      <path
         d="m 842.32,1674.74 -38.882,-159.84 167.761,63.36 c 18,2.88 60.481,3.6 53.281,-37.44 l -59.757,-266.4 c 86.397,10.8 173.517,102.96 187.197,165.6 18.72,120.25 -74.88,205.92 -74.88,205.92 l 51.84,124.56 c 0,0 126.72,-79.92 134.64,-236.16 l 0,-29.52 c 0,-0.72 0,-1.44 0,-2.16 -14.4,-200.16 -255.6,-246.96 -432.719,-294.48 l 54.715,260.64 c 6.48,20.88 6.48,42.48 -18.715,31.68 l -73.442,-30.96 -10.078,-42.48 0,265.69 c 10.078,4.31 17.996,10.07 19.438,16.55 1.441,7.92 -6.481,12.24 -19.438,12.96 l 0,26.64 c 44.641,13.68 78.477,1.44 59.039,-74.16 z m -59.039,-247.68 -41.039,-160.56 0,419.76 c 3.598,0 7.918,-0.72 11.516,0 l 7.922,35.28 c -7.203,-2.16 -13.684,-5.04 -19.438,-7.2 l 0,18 c 13.676,7.2 28.074,12.96 41.039,16.56 l 0,-26.64 c -3.605,0.72 -7.203,0.72 -11.523,0 l -8.637,-35.28 c 7.195,0.72 13.68,2.88 20.16,5.77 l 0,-265.69 z m -41.039,-160.56 -15.84,-64.8 -117.363,-11.52 110.879,475.2 -69.117,0 c 15.84,18.72 53.277,47.52 91.441,66.96 l 0,-18 c -7.922,-3.6 -14.402,-7.92 -18.004,-13.68 -5.039,-7.2 5.039,-12.96 18.004,-14.4 l 0,-419.76"
         inkscape:connector-curvature="0"
         id="path30"
         style="fill:#000000;fill-opacity:1;fill-rule:evenodd;stroke:none" />
      <path
         d="m 10,2039.78 1792.8,0 0,763.203 -1792.8,0 0,-763.203 z"
         inkscape:connector-curvature="0"
         id="path32"
         style="fill:none;stroke:#231f20;stroke-width:20.00099945;stroke-linecap:butt;stroke-linejoin:miter;stroke-miterlimit:4;stroke-opacity:1;stroke-dasharray:none" />
      <path
         d="m 1762.48,2344.34 0,401.77 -1703.5191,0 0,-404.65"
         inkscape:connector-curvature="0"
         id="path34"
         style="fill:none;stroke:#000000;stroke-width:20.00099945;stroke-linecap:round;stroke-linejoin:round;stroke-miterlimit:4;stroke-opacity:1;stroke-dasharray:none" />
      <path
         d="m 1589.68,2311.95 c 0,-0.73 16.56,-17.29 16.56,-17.29 0,-0.72 140.4,-0.72 140.4,-0.72 0,0 28.8,-23.04 28.8,-22.32 l -28.8,-23.76 -141.12,0 c 0.72,0 -16.56,-18 -15.84,-18 l -63.36,0 c 0,0 39.6,41.04 39.6,41.76 0,0 -40.32,39.6 -39.6,39.6 0,0 62.64,0.73 63.36,0.73"
         inkscape:connector-curvature="0"
         id="path36"
         style="fill:#000000;fill-opacity:1;fill-rule:evenodd;stroke:none" />
      <path
         d="m 1563.04,2273.06 -1204.56,0.72"
         inkscape:connector-curvature="0"
         id="path38"
         style="fill:none;stroke:#000000;stroke-width:20.00099945;stroke-linecap:round;stroke-linejoin:round;stroke-miterlimit:4;stroke-opacity:1;stroke-dasharray:none" />
      <path
         d="m 357.039,2273.78 c -7.199,-0.72 -13.68,0.72 -19.437,-19.44"
         inkscape:connector-curvature="0"
         id="path40"
         style="fill:none;stroke:#000000;stroke-width:20.00099945;stroke-linecap:round;stroke-linejoin:round;stroke-miterlimit:4;stroke-opacity:1;stroke-dasharray:none" />
      <path
         d="M 337.602,2254.34 313.84,2153.54"
         inkscape:connector-curvature="0"
         id="path42"
         style="fill:none;stroke:#000000;stroke-width:20.00099945;stroke-linecap:round;stroke-linejoin:round;stroke-miterlimit:4;stroke-opacity:1;stroke-dasharray:none" />
      <path
         d="m 316,2160.02 c -4.32,-7.2 -2.879,-11.52 -10.078,-12.23 -10.082,-0.73 -12.961,43.19 -17.281,66.95"
         inkscape:connector-curvature="0"
         id="path44"
         style="fill:none;stroke:#000000;stroke-width:20.00099945;stroke-linecap:round;stroke-linejoin:round;stroke-miterlimit:4;stroke-opacity:1;stroke-dasharray:none" />
      <path
         d="M 295.117,2170.82 230.32,2611.46"
         inkscape:connector-curvature="0"
         id="path46"
         style="fill:none;stroke:#000000;stroke-width:20.00099945;stroke-linecap:round;stroke-linejoin:round;stroke-miterlimit:4;stroke-opacity:1;stroke-dasharray:none" />
      <path
         d="m 230.32,2610.74 c -2.882,18.72 -6.48,48.96 -12.242,48.96 -3.598,0 -10.797,-30.24 -15.117,-51.84"
         inkscape:connector-curvature="0"
         id="path48"
         style="fill:none;stroke:#000000;stroke-width:20.00099945;stroke-linecap:round;stroke-linejoin:round;stroke-miterlimit:4;stroke-opacity:1;stroke-dasharray:none" />
      <path
         d="M 211.598,2643.86 133.121,2324.9"
         inkscape:connector-curvature="0"
         id="path50"
         style="fill:none;stroke:#000000;stroke-width:20.00099945;stroke-linecap:round;stroke-linejoin:round;stroke-miterlimit:4;stroke-opacity:1;stroke-dasharray:none" />
      <path
         d="m 133.121,2318.42 c -14.402,-42.48 -23.043,-46.08 -75.6015,-44.64"
         inkscape:connector-curvature="0"
         id="path52"
         style="fill:none;stroke:#000000;stroke-width:20.00099945;stroke-linecap:round;stroke-linejoin:round;stroke-miterlimit:4;stroke-opacity:1;stroke-dasharray:none" />
      <path
         d="m 58.9609,2210.42 0,-126.72 1701.3591,0 0,126.72"
         inkscape:connector-curvature="0"
         id="path54"
         style="fill:none;stroke:#000000;stroke-width:20.00099945;stroke-linecap:round;stroke-linejoin:round;stroke-miterlimit:4;stroke-opacity:1;stroke-dasharray:none" />
      <path
         d="m 879.762,2359.46 0,79.92 c 3.597,3.6 6.476,7.92 9.359,12.96 6.481,12.24 10.078,26.64 10.078,43.2 0,16.56 -3.597,30.96 -10.078,43.92 -2.883,5.04 -5.762,9.36 -9.359,12.96 l 0,75.6 c 63.359,-15.12 95.039,-59.76 95.039,-133.92 0,-74.88 -31.68,-120.24 -95.039,-134.64 l 0,0 z m 115.199,298.08 234.719,0 0,-82.8 -79.2,0 0,-253.44 -77.04,0 0,253.44 -78.479,0 0,82.8 z m 508.319,0 0,-336.24 -72.72,0 0,185.04 -93.6,-185.04 -72.72,0 0,336.24 72.72,0 0,-185.76 94.32,185.76 72,0 z m -623.518,-29.52 0,-75.6 c -5.039,6.48 -11.524,10.8 -18.723,14.4 l 0,-139.68 c 7.199,2.16 13.684,6.48 18.723,12.24 l 0,-79.92 c -5.762,-1.44 -12.242,-2.16 -18.723,-2.88 l 0,-35.28 -70.562,0 0,36 c -6.477,0.72 -12.957,2.16 -19.438,2.88 l 0,79.92 c 5.762,-6.48 12.242,-10.8 19.438,-14.4 l 0,138.96 c -7.196,-2.88 -13.676,-7.2 -19.438,-13.68 l 0,77.04 c 6.481,2.16 12.961,2.88 19.438,4.32 l 0,25.2 70.562,0 0,-25.2 c 6.481,-1.44 12.961,-2.16 18.723,-4.32 z m -520.563,29.52 101.52,0 39.597,-204.48 38.883,204.48 101.52,0 0,-336.24 -63.36,0 0,256.32 -48.961,-256.32 -56.878,0 -48.961,256.32 0,-256.32 -63.36,0 0,336.24 z m 411.84,-29.52 0,-77.04 c -2.879,-3.6 -5.762,-7.92 -8.641,-12.24 -6.48,-12.96 -10.078,-28.08 -10.078,-44.64 0,-15.84 3.598,-29.52 10.078,-41.76 2.879,-5.04 5.762,-9.36 8.641,-12.24 l 0,-79.92 c -62.641,14.4 -94.32,59.04 -94.32,133.92 0,74.16 31.679,118.8 94.32,133.92"
         inkscape:connector-curvature="0"
         id="path56"
         style="fill:#231f20;fill-opacity:1;fill-rule:evenodd;stroke:none" />
      <path
         d="m 1300.24,743.062 0,43.922 c 17.28,0.715 28.08,1.438 33.12,2.879 6.48,1.442 11.52,4.317 15.12,8.637 3.6,4.324 5.04,9.363 5.04,15.84 0,6.48 -2.16,12.242 -7.2,16.562 -4.32,4.317 -10.8,7.2 -19.44,8.637 -3.6,0 -12.24,0 -26.64,0 l 0,34.563 5.04,0 c 28.08,0 48.24,-1.442 60.48,-5.04 12.96,-4.32 23.04,-10.8 30.24,-20.16 7.92,-8.636 11.52,-20.16 11.52,-32.398 0,-15.121 -5.76,-28.082 -17.28,-38.164 -11.52,-10.078 -28.8,-16.559 -51.12,-19.438 11.52,-5.039 20.88,-10.8 28.08,-17.281 7.2,-6.48 17.28,-17.996 29.52,-33.836 l 31.68,-41.043 -62.64,0 -37.44,45.36 c -13.68,16.558 -23.04,26.64 -28.08,30.96 l 0,0 z m 156.96,-76.32 0,207.36 192.96,0 0,-34.563 -140.4,0 0,-46.078 130.32,0 0,-34.559 -130.32,0 0,-56.879 145.44,0 0,-35.281 -198,0 z m -156.96,207.36 0,-34.563 c -3.6,0 -7.2,0 -11.52,0 l -41.04,0 0,-52.555 38.88,0 c 5.04,0 9.36,0 13.68,0 l 0,-43.922 c -5.04,4.321 -10.08,7.204 -15.84,8.637 -5.76,1.442 -14.4,2.164 -26.64,2.164 l -10.08,0 0,-87.121 -52.56,0 0,207.36 105.12,0 0,0 z m -491.041,-128.161 0,35.282 c 10.801,0.722 18.723,1.437 23.762,2.879 7.199,2.16 12.238,5.761 16.559,10.078 3.601,5.043 5.757,10.082 5.757,16.562 0,7.199 -2.879,13.68 -8.636,18.719 -5.039,5.039 -12.243,7.922 -20.879,9.363 -3.606,0 -9.36,0.715 -16.563,0.715 l 0,34.563 c 23.762,0 39.598,-1.442 47.52,-2.879 15.121,-2.883 27.359,-10.078 37.441,-20.164 10.078,-10.079 15.117,-23.758 15.117,-39.598 0,-12.961 -2.875,-23.762 -8.636,-32.399 -5.762,-8.644 -12.961,-15.839 -22.321,-20.878 -8.644,-5.043 -18.004,-7.918 -26.64,-9.36 -10.801,-2.164 -24.485,-2.883 -42.481,-2.883 l 0,0 z m 143.281,-79.199 0,207.36 192.96,0 0,-34.563 -140.4,0 0,-46.078 130.32,0 0,-34.559 -130.32,0 0,-56.879 145.44,0 0,-35.281 -198,0 z m -143.281,207.36 0,-34.563 c -5.761,0 -12.961,0 -20.879,0 l -25.922,0 0,-58.316 28.801,0 c 6.481,0 12.961,0 18,0 l 0,-35.282 c -4.32,-0.722 -7.922,-0.722 -12.242,-0.722 l -34.559,0 0,-78.477 -51.836,0 0,207.36 84.239,0 c 5.039,0 9.359,0 14.398,0 l 0,0 z M 550,714.262 l 0,35.277 36,0 -36,76.32 0,48.243 28.082,0 104.398,-207.36 -57.601,0 -22.32,47.52 -52.559,0 z m -357.844,20.16 51.121,4.32 c 2.883,-13.68 9.364,-23.762 18.723,-30.242 9.359,-6.477 22.316,-9.359 38.156,-9.359 16.563,0 29.524,2.882 38.164,8.644 8.641,5.039 12.957,12.235 12.957,19.438 0,5.039 -2.16,9.359 -5.757,12.957 -3.602,3.601 -9.36,6.48 -18.719,8.644 -5.762,2.156 -20.164,5.039 -41.762,9.36 -28.078,5.757 -48.238,12.234 -59.762,20.878 -15.839,10.801 -23.757,25.2 -23.757,41.758 0,10.082 3.597,20.16 11.519,28.801 7.199,9.359 18,16.563 32.399,20.883 14.402,5.039 30.96,7.195 51.121,7.195 32.402,0 56.882,-5.754 73.441,-17.281 16.559,-10.797 25.199,-25.918 25.922,-44.637 l -51.844,-2.16 c -2.879,10.801 -7.199,18.723 -15.117,23.039 -7.199,5.039 -18,7.203 -33.121,7.203 -15.121,0 -27.36,-2.164 -35.281,-7.203 -5.758,-3.598 -8.641,-7.918 -8.641,-12.957 0,-5.043 2.883,-9.363 7.922,-12.961 6.476,-4.32 22.316,-9.359 48.238,-13.68 25.199,-5.039 43.922,-10.078 56.16,-15.117 12.242,-5.047 22.321,-12.242 28.801,-20.886 7.199,-9.36 10.801,-20.157 10.801,-33.118 0,-12.238 -4.32,-23.039 -12.242,-33.839 -8.637,-10.079 -20.157,-17.997 -35.282,-23.043 -15.117,-5.039 -33.836,-7.918 -56.878,-7.918 -32.399,0 -58.321,6.48 -75.598,18.718 -17.281,12.243 -28.082,29.524 -31.684,52.563 l 0,0 z M 550,874.102 l 0,-48.243 0,0.723 -35.277,-77.043 35.277,0 0,-35.277 -51.121,0 -21.598,-47.52 -56.164,0 101.524,207.36 27.359,0"
         inkscape:connector-curvature="0"
         id="path58"
         style="fill:#231f20;fill-opacity:1;fill-rule:evenodd;stroke:none" />
      <path
         d="m 2671.12,882.023 30.96,-84.238 27.36,0 -12.96,28.074 42.48,-28.074 48.96,28.074 -19.44,-28.074 29.52,-0.723 44.64,84.243 -102.96,-46.086 -88.56,46.804"
         inkscape:connector-curvature="0"
         id="path60"
         style="fill:#000000;fill-opacity:1;fill-rule:evenodd;stroke:none" />
      <path
         d="m 2794.24,701.305 -38.16,-159.844 167.04,63.363 c 18.72,2.16 60.48,3.598 53.28,-37.441 L 2916.64,300.98 c 86.4,10.079 173.52,102.961 187.92,165.602 18.72,120.238 -75.6,205.918 -75.6,205.918 l 51.84,124.562 c 0,0 127.44,-80.64 135.36,-236.16 l 0,-29.519 c -0.72,-0.719 -0.72,-1.442 -0.72,-2.16 -13.68,-200.161 -255.6,-246.961 -432.72,-295.2 l 54.72,260.641 c 7.2,21.598 7.2,43.199 -18.72,32.398 l -72.72,-30.957 -10.8,-42.48 0,264.961 c 10.8,4.316 18,10.793 19.44,17.273 2.16,7.922 -6.48,12.243 -19.44,12.965 l 0,26.641 c 45.36,12.957 79.2,0.719 59.04,-74.16 z m -59.04,-247.68 -40.32,-161.281 0,420.48 c 3.6,-0.722 7.2,-0.722 11.52,-0.722 l 7.92,35.281 c -7.92,-2.164 -14.4,-4.321 -19.44,-7.203 l 0,18.722 c 13.68,7.203 27.36,12.957 40.32,16.563 l 0,-26.641 c -3.6,0 -7.2,0 -11.52,0 l -7.92,-36 c 6.48,1.438 13.68,3.598 19.44,5.762 l 0,-264.961 z m -40.32,-161.281 -15.84,-64.082 -117.36,-11.52 111.6,474.481 -69.84,0 c 15.84,19.441 54,48.238 91.44,67.679 l 0,-18.722 c -7.92,-3.598 -13.68,-7.918 -17.28,-12.957 -5.76,-7.922 5.04,-12.961 17.28,-14.399 l 0,-420.48"
         inkscape:connector-curvature="0"
         id="path62"
         style="fill:#000000;fill-opacity:1;fill-rule:evenodd;stroke:none" />
      <path
         d="m 3214.71,1154.18 0,153.36 -649.43,0 0,-154.79"
         inkscape:connector-curvature="0"
         id="path64"
         style="fill:none;stroke:#000000;stroke-width:10.0010004;stroke-linecap:round;stroke-linejoin:round;stroke-miterlimit:4;stroke-opacity:1;stroke-dasharray:none" />
      <path
         d="m 3144.16,1141.95 c 0,-0.73 6.48,-6.49 6.48,-6.49 l 53.28,0 10.79,-7.92 c 0.73,0 -10.79,-7.92 -10.79,-8.64 l -53.28,0 -6.48,-5.76 -23.76,0 15.12,14.4 -15.12,13.68 23.76,0.73"
         inkscape:connector-curvature="0"
         id="path66"
         style="fill:#000000;fill-opacity:1;fill-rule:evenodd;stroke:none" />
      <path
         d="m 3138.4,1126.82 -458.64,0"
         inkscape:connector-curvature="0"
         id="path68"
         style="fill:none;stroke:#000000;stroke-width:10.0010004;stroke-linecap:round;stroke-linejoin:round;stroke-miterlimit:4;stroke-opacity:1;stroke-dasharray:none" />
      <path
         d="m 2679.04,1126.82 c -2.88,0 -5.04,0.72 -7.2,-7.2"
         inkscape:connector-curvature="0"
         id="path70"
         style="fill:none;stroke:#000000;stroke-width:10.0010004;stroke-linecap:round;stroke-linejoin:round;stroke-miterlimit:4;stroke-opacity:1;stroke-dasharray:none" />
      <path
         d="m 2671.84,1119.62 -9.36,-38.16"
         inkscape:connector-curvature="0"
         id="path72"
         style="fill:none;stroke:#000000;stroke-width:10.0010004;stroke-linecap:round;stroke-linejoin:round;stroke-miterlimit:4;stroke-opacity:1;stroke-dasharray:none" />
      <path
         d="m 2663.2,1083.62 c -1.44,-2.88 -0.72,-4.32 -3.6,-4.32 -4.32,-0.72 -5.04,16.56 -6.48,25.2"
         inkscape:connector-curvature="0"
         id="path74"
         style="fill:none;stroke:#000000;stroke-width:10.0010004;stroke-linecap:round;stroke-linejoin:round;stroke-miterlimit:4;stroke-opacity:1;stroke-dasharray:none" />
      <path
         d="M 2655.28,1087.94 2630.8,1255.7"
         inkscape:connector-curvature="0"
         id="path76"
         style="fill:none;stroke:#000000;stroke-width:10.0010004;stroke-linecap:round;stroke-linejoin:round;stroke-miterlimit:4;stroke-opacity:1;stroke-dasharray:none" />
      <path
         d="m 2630.8,1255.7 c -1.44,7.2 -2.88,18.72 -5.04,18.72 -1.44,0 -4.32,-11.52 -5.76,-19.44"
         inkscape:connector-curvature="0"
         id="path78"
         style="fill:none;stroke:#000000;stroke-width:10.0010004;stroke-linecap:round;stroke-linejoin:round;stroke-miterlimit:4;stroke-opacity:1;stroke-dasharray:none" />
      <path
         d="m 2623.6,1268.66 -30.24,-121.68"
         inkscape:connector-curvature="0"
         id="path80"
         style="fill:none;stroke:#000000;stroke-width:10.0010004;stroke-linecap:round;stroke-linejoin:round;stroke-miterlimit:4;stroke-opacity:1;stroke-dasharray:none" />
      <path
         d="m 2593.36,1144.1 c -5.04,-15.84 -8.65,-17.28 -28.8,-16.56"
         inkscape:connector-curvature="0"
         id="path82"
         style="fill:none;stroke:#000000;stroke-width:10.0010004;stroke-linecap:round;stroke-linejoin:round;stroke-miterlimit:4;stroke-opacity:1;stroke-dasharray:none" />
      <path
         d="m 2565.28,1103.06 0,-48.24 648,0 0,48.24"
         inkscape:connector-curvature="0"
         id="path84"
         style="fill:none;stroke:#000000;stroke-width:10.0010004;stroke-linecap:round;stroke-linejoin:round;stroke-miterlimit:4;stroke-opacity:1;stroke-dasharray:none" />
      <path
         d="m 2877.76,1159.94 0,30.24 c 1.44,1.44 2.16,2.88 3.6,5.04 2.16,4.32 3.6,10.08 3.6,16.56 0,6.48 -1.44,11.52 -3.6,16.56 -1.44,2.16 -2.16,3.61 -3.6,5.04 l 0,28.8 c 23.76,-5.76 36,-22.32 36,-51.12 0,-28.8 -12.24,-45.36 -36,-51.12 l 0,0 z m 43.92,113.76 89.28,0 0,-31.68 -30.24,0 0,-96.48 -29.52,0 0,96.48 -29.52,0 0,31.68 z m 193.68,0 0,-128.16 -27.36,0 0,70.57 -36,-70.57 -27.36,0 0,128.16 27.36,0 0,-71.28 36,71.28 27.36,0 z m -237.6,-11.52 0,-28.8 c -2.16,2.16 -4.32,4.32 -7.2,5.76 l 0,-53.28 c 2.88,0.72 5.04,2.16 7.2,4.32 l 0,-30.24 c -2.16,-0.72 -5.04,-0.72 -7.2,-1.44 l 0,-12.96 -26.64,0 0,13.68 c -2.88,0 -5.04,0.72 -7.92,0.72 l 0,30.24 c 2.16,-2.16 5.04,-3.6 7.92,-5.04 l 0,53.28 c -2.88,-1.44 -5.76,-2.88 -7.92,-5.76 l 0,29.52 c 2.88,0.72 5.04,1.44 7.92,1.44 l 0,10.08 26.64,0 0,-10.08 c 2.16,0 5.04,-0.72 7.2,-1.44 z m -198,11.52 38.16,0 15.12,-77.76 14.4,77.76 38.88,0 0,-128.16 -23.76,0 0,97.92 -18.72,-97.92 -22.32,0 -18,97.92 0,-97.92 -23.76,0 0,128.16 z m 156.24,-11.52 0,-29.52 c -0.72,-0.71 -2.16,-2.88 -2.88,-4.32 -2.88,-5.04 -4.32,-10.8 -4.32,-17.28 0,-5.76 1.44,-11.52 4.32,-15.84 0.72,-2.16 2.16,-3.6 2.88,-5.04 l 0,-30.24 c -23.76,5.76 -36,22.32 -36,51.12 0,28.8 12.24,45.36 36,51.12"
         inkscape:connector-curvature="0"
         id="path86"
         style="fill:#231f20;fill-opacity:1;fill-rule:evenodd;stroke:none" />
      <path
         d="m 928.719,3585.62 c -101.524,-402.48 -717.121,-403.92 -817.922,0 0,123.84 0,123.84 0,123.84 l 817.922,0 c 0,0 0,0 0,-123.84 z"
         inkscape:connector-curvature="0"
         id="path88"
         style="fill:none;stroke:#231f20;stroke-width:10.0010004;stroke-linecap:butt;stroke-linejoin:miter;stroke-miterlimit:4;stroke-opacity:1;stroke-dasharray:none" />
      <path
         d="m 110.797,3729.62 817.922,0 0,424.801 -817.922,0 0,-424.801 z"
         inkscape:connector-curvature="0"
         id="path90"
         style="fill:none;stroke:#231f20;stroke-width:10.0010004;stroke-linecap:butt;stroke-linejoin:miter;stroke-miterlimit:4;stroke-opacity:1;stroke-dasharray:none" />
      <path
         d="m 591.039,3417.14 0,15.84 c 2.883,0.72 5.039,0.72 7.199,0.72 3.602,1.44 7.2,2.16 9.36,4.32 2.879,2.16 5.043,5.04 6.48,9.36 1.438,4.32 2.16,10.08 2.16,17.28 0,7.2 -0.722,12.96 -2.16,16.56 -1.437,4.32 -4.316,7.2 -7.199,9.36 -2.879,2.16 -6.481,3.6 -10.801,4.32 -1.441,0 -2.879,0.72 -5.039,0.72 l 0,16.56 c 7.199,-0.72 12.961,-0.72 17.281,-2.16 6.481,-1.44 12.957,-4.32 17.282,-8.64 5.039,-4.32 9.359,-9.36 11.515,-15.12 2.883,-6.48 4.324,-13.68 4.324,-22.32 0,-7.92 -1.441,-15.12 -4.324,-20.16 -2.879,-7.2 -6.476,-12.96 -12.238,-17.28 -4.317,-2.88 -10.078,-5.76 -16.559,-7.2 -5.039,-1.44 -10.082,-2.16 -17.281,-2.16 l 0,0 z m 70.563,0 0,95.04 87.836,0 0,-16.56 -64.079,0 0,-20.88 59.758,0 0,-15.84 -59.758,0 0,-25.92 66.243,0 0,-15.84 -90,0 z m -252.004,0 -25.918,0 -10.801,21.6 -23.762,0 0,15.84 16.563,0 -16.563,34.56 0,23.04 12.961,0 47.52,-95.04 0,0 z m 181.441,95.04 0,-16.56 c -3.598,0 -8.641,0 -14.398,0 l -10.801,0 0,-62.64 18,0 c 2.879,0 5.039,0 7.199,0 l 0,-15.84 c -1.441,0 -2.879,0 -4.32,0 l -44.641,0 0,95.04 43.199,0 c 2.164,0 4.321,0 5.762,0 l 0,0 z m -169.199,0 24.476,0 0,-51.84 c 0,-7.92 0,-12.96 0.727,-15.84 0.715,-3.6 3.598,-6.48 7.195,-9.36 3.602,-2.16 9.36,-3.6 15.84,-3.6 6.481,0 11.524,1.44 15.121,3.6 3.598,2.16 5.758,5.04 6.481,7.92 0.718,3.6 0.718,8.64 0.718,16.56 l 0,52.56 24.481,0 0,-49.68 c 0,-11.52 -0.723,-19.44 -2.156,-24.48 -1.442,-5.04 -3.606,-8.64 -7.203,-12.24 -3.598,-2.88 -7.922,-5.76 -13.68,-7.2 -5.758,-2.16 -13.68,-2.88 -23.039,-2.88 -11.524,0 -20.16,0.72 -25.922,2.88 -5.762,2.16 -10.078,5.04 -13.68,7.92 -3.597,3.6 -5.761,7.2 -6.48,10.8 -2.16,5.76 -2.879,13.68 -2.879,23.76 l 0,51.12 z m -72.723,-73.44 -23.039,0 -10.078,-21.6 -25.203,0 46.082,95.04 12.238,0 0,-23.04 0,0.72 -15.84,-35.28 15.84,0 0,-15.84"
         inkscape:connector-curvature="0"
         id="path92"
         style="fill:#231f20;fill-opacity:1;fill-rule:evenodd;stroke:none" />
      <path
         d="m 432.641,4112.66 15.117,-41.04 12.961,0 -5.758,13.68 20.156,-12.96 23.043,12.96 -8.64,-13.68 13.679,0 21.602,41.04 -48.961,-23.04 -43.199,23.04"
         inkscape:connector-curvature="0"
         id="path94"
         style="fill:#000000;fill-opacity:1;fill-rule:evenodd;stroke:none" />
      <path
         d="m 491.68,4025.54 -18,-76.32 79.918,30.24 c 8.644,1.44 29.523,1.44 25.922,-18 l -28.801,-127.44 c 41.761,5.04 82.801,49.68 90,79.2 8.64,57.6 -35.996,98.64 -35.996,98.64 l 24.476,59.76 c 0,0 61.918,-38.88 64.801,-114.48 l 0,-11.52 c 0,-0.72 0,-1.44 0,-2.16 -7.199,-95.76 -122.398,-118.08 -207.359,-141.12 l 25.918,124.56 c 3.597,10.08 3.597,20.88 -8.637,15.12 l -35.285,-14.4 -5.039,-20.16 0,126.72 c 5.039,2.16 8.644,5.04 9.363,7.92 0.719,3.6 -2.883,6.48 -9.363,6.48 l 0,12.96 c 21.601,6.48 38.16,0 28.082,-36 z m -28.082,-118.08 -19.438,-77.76 0,201.6 c 2.156,0 3.598,0 5.758,0 l 3.602,16.56 c -3.602,-0.72 -6.477,-2.16 -9.36,-3.6 l 0,9.36 c 6.481,2.88 13.68,5.76 19.438,7.92 l 0,-12.96 c -1.442,0 -3.598,0 -5.039,0 l -4.321,-17.28 c 3.602,0.72 6.481,1.44 9.36,2.88 l 0,-126.72 z m -19.438,-77.76 -7.922,-30.24 -56.16,-5.76 53.281,227.52 -33.121,0 c 7.922,8.64 25.922,23.04 43.922,32.4 l 0,-9.36 c -3.601,-1.44 -6.48,-3.6 -8.64,-5.76 -2.161,-3.6 2.878,-6.48 8.64,-7.2 l 0,-201.6"
         inkscape:connector-curvature="0"
         id="path96"
         style="fill:#000000;fill-opacity:1;fill-rule:evenodd;stroke:none" />
      <path
         d="m 110.078,4173.86 816.48,0 0,347.758 -816.48,0 0,-347.758 z"
         inkscape:connector-curvature="0"
         id="path98"
         style="fill:none;stroke:#231f20;stroke-width:10.0010004;stroke-linecap:butt;stroke-linejoin:miter;stroke-miterlimit:4;stroke-opacity:1;stroke-dasharray:none" />
      <path
         d="m 825.039,4288.34 7.922,-7.92 63.355,0 12.961,-10.08 -12.961,-10.8 -64.074,0 c 0.719,0 -7.203,-7.92 -7.203,-7.92 l -28.801,0 18,18.72 -18,18 28.801,0"
         inkscape:connector-curvature="0"
         id="path100"
         style="fill:#000000;fill-opacity:1;fill-rule:evenodd;stroke:none" />
      <path
         d="m 817.84,4269.62 -549.36,0"
         inkscape:connector-curvature="0"
         id="path102"
         style="fill:none;stroke:#000000;stroke-width:10.0010004;stroke-linecap:round;stroke-linejoin:round;stroke-miterlimit:4;stroke-opacity:1;stroke-dasharray:none" />
      <path
         d="m 267.758,4269.62 c -2.879,0 -5.758,0.72 -8.641,-9.36"
         inkscape:connector-curvature="0"
         id="path104"
         style="fill:none;stroke:#000000;stroke-width:10.0010004;stroke-linecap:round;stroke-linejoin:round;stroke-miterlimit:4;stroke-opacity:1;stroke-dasharray:none" />
      <path
         d="M 259.117,4260.26 248.32,4211.3"
         inkscape:connector-curvature="0"
         id="path106"
         style="fill:none;stroke:#000000;stroke-width:10.0010004;stroke-linecap:round;stroke-linejoin:round;stroke-miterlimit:4;stroke-opacity:1;stroke-dasharray:none" />
      <path
         d="m 249.039,4214.9 c -2.16,-3.6 -0.719,-5.76 -4.32,-5.76 -4.321,-0.72 -5.758,20.88 -7.918,31.68"
         inkscape:connector-curvature="0"
         id="path108"
         style="fill:none;stroke:#000000;stroke-width:10.0010004;stroke-linecap:round;stroke-linejoin:round;stroke-miterlimit:4;stroke-opacity:1;stroke-dasharray:none" />
      <path
         d="m 239.68,4219.94 -29.524,213.12"
         inkscape:connector-curvature="0"
         id="path110"
         style="fill:none;stroke:#000000;stroke-width:10.0010004;stroke-linecap:round;stroke-linejoin:round;stroke-miterlimit:4;stroke-opacity:1;stroke-dasharray:none" />
      <path
         d="m 210.156,4433.06 c -1.437,8.64 -2.875,23.04 -5.758,23.04 -1.437,0 -4.32,-14.4 -6.476,-24.48"
         inkscape:connector-curvature="0"
         id="path112"
         style="fill:none;stroke:#000000;stroke-width:10.0010004;stroke-linecap:round;stroke-linejoin:round;stroke-miterlimit:4;stroke-opacity:1;stroke-dasharray:none" />
      <path
         d="m 201.52,4448.9 -36,-154.08"
         inkscape:connector-curvature="0"
         id="path114"
         style="fill:none;stroke:#000000;stroke-width:10.0010004;stroke-linecap:round;stroke-linejoin:round;stroke-miterlimit:4;stroke-opacity:1;stroke-dasharray:none" />
      <path
         d="m 165.52,4291.22 c -6.481,-20.16 -10.082,-22.32 -33.84,-21.6"
         inkscape:connector-curvature="0"
         id="path116"
         style="fill:none;stroke:#000000;stroke-width:10.0010004;stroke-linecap:round;stroke-linejoin:round;stroke-miterlimit:4;stroke-opacity:1;stroke-dasharray:none" />
      <path
         d="m 506.078,4309.94 0,36.72 c 2.16,1.44 2.883,3.6 4.32,5.76 2.883,5.04 5.04,12.24 5.04,19.44 0,7.92 -2.157,14.4 -5.04,20.16 -1.437,2.16 -2.878,4.32 -4.32,5.76 l 0,34.56 c 28.801,-6.48 43.199,-27.36 43.199,-61.2 0,-33.84 -14.398,-54.72 -43.199,-61.2 l 0,0 z m 52.559,136.08 107.281,0 0,-38.16 -36,0 0,-115.2 -35.281,0 0,115.2 -36,0 0,38.16 z m 231.84,0 0,-153.36 -33.118,0 0,84.24 -42.48,-84.24 -33.121,0 0,153.36 33.121,0 0,-84.96 43.203,84.96 32.395,0 z m -284.399,-13.68 0,-34.56 c -2.156,2.88 -5.039,5.04 -8.637,6.48 l 0,-63.36 c 3.598,0.72 6.481,2.88 8.637,5.76 l 0,-36.72 c -2.156,-0.72 -5.762,-0.72 -8.637,-1.44 l 0,-15.84 -31.679,0 0,16.56 c -2.883,0 -5.762,0.72 -8.645,1.44 l 0,36 c 2.16,-2.88 5.039,-5.04 8.645,-6.48 l 0,63.36 c -3.606,-1.44 -6.485,-3.6 -8.645,-6.48 l 0,35.28 c 2.883,0.72 5.762,1.44 8.645,2.16 l 0,11.52 31.679,0 0,-11.52 c 2.875,-0.72 6.481,-1.44 8.637,-2.16 z m -236.879,13.68 46.078,0 18,-93.6 18,93.6 46.082,0 0,-153.36 -28.8,0 0,116.64 -22.321,-116.64 -25.918,0 -22.32,116.64 0,-116.64 -28.801,0 0,153.36 z m 187.918,-13.68 0,-35.28 c -1.437,-1.44 -2.879,-3.6 -4.32,-5.76 -2.879,-5.76 -4.317,-12.24 -4.317,-20.16 0,-7.2 1.438,-13.68 4.317,-18.72 1.441,-2.16 2.883,-4.32 4.32,-5.76 l 0,-36 c -28.797,5.76 -43.199,26.64 -43.199,60.48 0,33.84 14.402,54.72 43.199,61.2"
         inkscape:connector-curvature="0"
         id="path118"
         style="fill:#231f20;fill-opacity:1;fill-rule:evenodd;stroke:none" />
      <path
         d="m 698.32,3582.02 0,20.88 c 7.196,0 12.242,0 15.118,0.72 2.878,0.72 5.042,2.16 6.48,4.32 1.437,1.44 2.16,4.32 2.16,6.48 0,3.6 -0.723,6.48 -2.879,7.92 -2.156,2.16 -5.039,3.6 -9.359,3.6 -1.442,0.72 -5.039,0.72 -11.52,0.72 l 0,15.84 2.157,0 c 12.242,0 21.601,-0.72 27.363,-2.16 5.758,-2.16 10.797,-5.04 13.68,-9.36 3.597,-4.32 5.761,-9.36 5.761,-15.12 0,-7.2 -2.883,-12.96 -7.922,-17.28 -5.761,-5.04 -13.679,-7.92 -23.757,-8.64 5.039,-2.88 9.359,-5.04 12.957,-8.64 3.597,-2.88 7.921,-7.92 13.683,-15.12 l 14.399,-18.72 -28.801,0 -17.278,20.88 c -5.761,7.2 -10.085,12.24 -12.242,13.68 l 0,0 z m 71.278,-34.56 0,95.04 87.843,0 0,-15.84 -64.082,0 0,-20.88 59.762,0 0,-16.56 -59.762,0 0,-25.2 66.239,0 0,-16.56 -90,0 z m -71.278,95.04 0,-15.84 c -2.164,0 -3.597,0 -5.761,0 l -18.719,0 0,-24.48 18,0 c 2.16,0 4.316,0 6.48,0.72 l 0,-20.88 c -2.882,2.16 -5.039,3.6 -7.203,4.32 -2.879,0.72 -7.195,0.72 -12.238,0.72 l -5.039,0 0,-39.6 -23.762,0 0,95.04 48.242,0 0,0 z m -223.922,-59.04 0,16.56 c 5.04,0 8.637,0.72 10.801,1.44 2.883,0.72 5.758,2.16 7.199,4.32 2.161,2.16 2.879,4.32 2.879,7.2 0,3.6 -1.437,6.48 -3.597,8.64 -2.883,2.16 -5.762,3.6 -10.078,4.32 -1.442,0 -4.321,0.72 -7.204,0.72 l 0,15.84 c 10.801,0 18,-0.72 21.602,-1.44 6.48,-1.44 12.238,-4.32 17.281,-9.36 4.317,-4.32 6.481,-10.8 6.481,-18 0,-5.76 -1.442,-10.8 -3.606,-15.12 -2.875,-3.6 -6.48,-7.2 -10.078,-9.36 -4.32,-2.16 -8.637,-3.6 -12.957,-4.32 -4.324,-0.72 -10.801,-1.44 -18.723,-1.44 l 0,0 z m 64.801,-36 0,95.04 87.844,0 0,-15.84 -63.363,0 0,-20.88 59.039,0 0,-16.56 -59.039,0 0,-25.2 66.238,0 0,-16.56 -90.719,0 z m -64.801,95.04 0,-15.84 c -2.878,0 -6.476,0 -10.078,0 l -11.523,0 0,-27.36 12.965,0 c 3.597,0 5.758,0.72 8.636,0.72 l 0,-16.56 c -2.156,0 -3.597,0 -5.761,0 l -15.84,0 0,-36 -23.758,0 0,95.04 38.156,0 c 2.883,0 5.047,0 7.203,0 l 0,0 z m -118.082,-73.44 0,16.56 15.84,0 -15.84,34.56 0,22.32 12.243,0 47.519,-95.04 -25.922,0 -10.078,21.6 -23.762,0 z m -163.437,9.36 23.043,2.16 c 1.437,-6.48 4.316,-10.8 8.637,-13.68 4.32,-2.88 10.078,-4.32 17.281,-4.32 7.918,0 13.68,0.72 18,3.6 3.601,2.88 5.762,5.76 5.762,9.36 0,2.16 -0.723,3.6 -2.883,5.76 -1.442,1.44 -4.321,2.88 -8.641,3.6 -2.879,0.72 -8.64,2.16 -18.719,4.32 -12.961,2.88 -22.32,5.76 -27.359,9.36 -7.203,5.04 -10.801,11.52 -10.801,19.44 0,4.32 1.442,9.36 5.039,12.96 3.602,4.32 8.641,7.92 15.121,10.08 6.481,2.16 13.68,2.88 23.039,2.88 15.122,0 25.918,-2.16 33.84,-7.2 7.203,-5.76 11.52,-12.24 11.52,-21.6 L 262,3614.42 c -0.723,5.04 -3.602,8.64 -6.48,10.8 -3.602,2.16 -8.641,2.88 -15.122,2.88 -7.199,0 -12.238,-0.72 -16.558,-2.88 -2.16,-1.44 -3.602,-3.6 -3.602,-6.48 0,-2.16 0.723,-3.6 3.602,-5.76 2.879,-1.44 10.078,-3.6 21.598,-5.76 11.523,-2.16 20.164,-5.04 25.921,-7.2 5.758,-2.16 10.082,-5.76 12.957,-9.36 3.606,-4.32 5.043,-9.36 5.043,-15.12 0,-5.76 -2.16,-10.8 -5.761,-15.12 -3.598,-5.04 -9.36,-8.64 -15.84,-10.8 -7.199,-2.16 -15.84,-3.6 -25.918,-3.6 -15.121,0 -26.641,2.88 -34.559,8.64 -7.922,5.04 -12.965,13.68 -14.402,23.76 l 0,0 z m 163.437,64.08 0,-22.32 -0.714,0 -15.844,-34.56 16.558,0 0,-16.56 -23.757,0 -10.079,-21.6 -25.199,0 46.078,95.04 12.957,0"
         inkscape:connector-curvature="0"
         id="path120"
         style="fill:#231f20;fill-opacity:1;fill-rule:evenodd;stroke:none" />
      <path
         d="m 3149.2,1431.38 c 0,0 6.48,-5.76 6.48,-6.48 l 53.28,0 10.8,-7.92 -10.8,-7.92 -53.28,0 -6.48,-6.48 -23.76,0 15.12,14.4 -15.12,14.4 23.76,0"
         inkscape:connector-curvature="0"
         id="path168"
         style="fill:#000000;fill-opacity:1;fill-rule:evenodd;stroke:none" />
      <path
         d="m 3143.44,1416.98 -458.64,0"
         inkscape:connector-curvature="0"
         id="path170"
         style="fill:none;stroke:#000000;stroke-width:10.0010004;stroke-linecap:round;stroke-linejoin:round;stroke-miterlimit:4;stroke-opacity:1;stroke-dasharray:none" />
      <path
         d="m 2684.08,1416.98 c -2.88,0 -5.04,0 -7.2,-7.92"
         inkscape:connector-curvature="0"
         id="path172"
         style="fill:none;stroke:#000000;stroke-width:10.0010004;stroke-linecap:round;stroke-linejoin:round;stroke-miterlimit:4;stroke-opacity:1;stroke-dasharray:none" />
      <path
         d="m 2676.88,1409.06 -9.36,-38.16"
         inkscape:connector-curvature="0"
         id="path174"
         style="fill:none;stroke:#000000;stroke-width:10.0010004;stroke-linecap:round;stroke-linejoin:round;stroke-miterlimit:4;stroke-opacity:1;stroke-dasharray:none" />
      <path
         d="m 2668.24,1373.78 c -1.44,-2.88 -0.72,-5.04 -3.6,-5.04 -4.32,0 -5.04,16.56 -6.48,25.2"
         inkscape:connector-curvature="0"
         id="path176"
         style="fill:none;stroke:#000000;stroke-width:10.0010004;stroke-linecap:round;stroke-linejoin:round;stroke-miterlimit:4;stroke-opacity:1;stroke-dasharray:none" />
      <path
         d="m 2660.32,1377.38 -24.48,168.48"
         inkscape:connector-curvature="0"
         id="path178"
         style="fill:none;stroke:#000000;stroke-width:10.0010004;stroke-linecap:round;stroke-linejoin:round;stroke-miterlimit:4;stroke-opacity:1;stroke-dasharray:none" />
      <path
         d="m 2635.84,1545.86 c -1.44,6.48 -2.88,18 -5.04,18 -1.44,0 -4.32,-11.52 -5.76,-19.44"
         inkscape:connector-curvature="0"
         id="path180"
         style="fill:none;stroke:#000000;stroke-width:10.0010004;stroke-linecap:round;stroke-linejoin:round;stroke-miterlimit:4;stroke-opacity:1;stroke-dasharray:none" />
      <path
         d="M 2628.64,1558.1 2598.4,1436.42"
         inkscape:connector-curvature="0"
         id="path182"
         style="fill:none;stroke:#000000;stroke-width:10.0010004;stroke-linecap:round;stroke-linejoin:round;stroke-miterlimit:4;stroke-opacity:1;stroke-dasharray:none" />
      <path
         d="m 2598.4,1434.26 c -5.76,-16.56 -8.64,-18 -28.8,-17.28"
         inkscape:connector-curvature="0"
         id="path184"
         style="fill:none;stroke:#000000;stroke-width:10.0010004;stroke-linecap:round;stroke-linejoin:round;stroke-miterlimit:4;stroke-opacity:1;stroke-dasharray:none" />
      <path
         d="m 2882.8,1449.38 0,30.96 c 1.44,1.44 2.16,2.88 3.6,4.32 2.16,5.04 3.6,10.08 3.6,16.56 0,6.48 -1.44,12.24 -4.32,17.28 -0.72,1.44 -1.44,2.88 -2.88,4.32 l 0,29.52 c 23.76,-5.76 36,-23.04 36,-51.12 0,-28.8 -12.24,-46.08 -36,-51.84 l 0,0 z m 43.92,113.76 89.28,0 0,-31.68 -30.24,0 0,-96.48 -29.52,0 0,96.48 -29.52,0 0,31.68 z m 193.68,0 0,-128.16 -27.36,0 0,70.56 -36,-70.56 -27.36,0 0,128.16 27.36,0 0,-70.56 36,70.56 27.36,0 z m -237.6,-10.8 0,-29.52 c -2.16,2.88 -4.32,4.32 -7.2,5.76 l 0,-53.28 c 2.88,0.72 5.04,2.88 7.2,5.04 l 0,-30.96 c -2.16,0 -5.04,-0.72 -7.2,-0.72 l 0,-13.68 -27.36,0 0,13.68 c -2.16,0 -4.32,0.72 -7.2,1.44 l 0,30.24 c 2.16,-2.16 5.04,-4.32 7.2,-5.76 l 0,53.28 c -2.16,-0.72 -5.04,-2.88 -7.2,-5.04 l 0,29.52 c 2.88,0 5.04,0.72 7.2,1.44 l 0,9.36 27.36,0 0,-9.36 c 2.16,-0.72 5.04,-1.44 7.2,-1.44 z m -198,10.8 38.16,0 15.12,-77.76 14.4,77.76 38.88,0 0,-128.16 -23.76,0 0,97.92 -18.72,-97.92 -22.32,0 -18,97.92 0,-97.92 -23.76,0 0,128.16 z m 156.24,-10.8 0,-29.52 c -0.72,-1.44 -2.16,-2.88 -2.88,-5.03 -2.88,-5.04 -4.32,-10.81 -4.32,-17.29 0,-5.76 1.44,-10.8 4.32,-15.84 0.72,-1.44 2.16,-2.88 2.88,-4.32 l 0,-30.24 c -23.76,5.04 -36,22.32 -36,51.12 0,28.08 12.24,45.36 36,51.12"
         inkscape:connector-curvature="0"
         id="path186"
         style="fill:#231f20;fill-opacity:1;fill-rule:evenodd;stroke:none" />
      <path
         d="M 4071.52,678.98 4042,540.02 l 126,55.445 c 13.68,2.156 45.36,2.875 40.32,-33.121 l -45.36,-231.121 c 65.52,9.359 131.04,89.281 141.12,143.996 14.4,104.402 -56.16,178.562 -56.16,178.562 l 38.88,108 c 0,0 108.72,-79.199 101.52,-232.558 -10.8,-173.52 -192.96,-214.559 -325.44,-256.321 l 41.04,226.801 c 5.04,18.719 5.04,37.442 -14.4,28.082 l -54.72,-27.363 -50.4,-232.559 -88.56,-10.078 83.52,412.559 -52.56,0 c 31.68,43.195 175.68,144.718 144.72,8.636 l 0,0 z m -60.48,40.321 c -14.4,-5.039 -23.76,-10.078 -28.08,-17.996 -5.04,-7.922 8.64,-13.684 21.6,-12.965 l 6.48,30.961 0,0 z m 0.72,-30.239 c 14.4,2.883 28.08,11.52 29.52,20.161 2.16,8.64 -8.64,12.238 -23.04,10.797 l -6.48,-30.958 z"
         inkscape:connector-curvature="0"
         id="path194"
         style="fill:none;stroke:#231f20;stroke-width:0.037;stroke-linecap:round;stroke-linejoin:round;stroke-miterlimit:4;stroke-opacity:1;stroke-dasharray:none" />
      <path
         d="m 3977.92,836.66 23.76,-74.16 20.88,0 -10.08,25.199 31.68,-25.199 37.44,25.199 -14.4,-25.199 22.32,0 33.12,73.441 -77.04,-41.039 -67.68,41.758 z"
         inkscape:connector-curvature="0"
         id="path190"
         style="fill:none;stroke:#231f20;stroke-width:0.037;stroke-linecap:round;stroke-linejoin:round;stroke-miterlimit:4;stroke-opacity:1;stroke-dasharray:none" />
      <g
         id="g3922"
         transform="translate(-648.57143,2620)">
        <path
           style="fill:#231f20;fill-opacity:1;fill-rule:evenodd;stroke:none"
           id="path188"
           inkscape:connector-curvature="0"
           d="m 3977.92,836.66 23.76,-74.16 20.88,0 -10.08,25.199 31.68,-25.199 37.44,25.199 -14.4,-25.199 22.32,0 33.12,73.441 -77.04,-41.039 -67.68,41.758" />
        <path
           style="fill:#231f20;fill-opacity:1;fill-rule:evenodd;stroke:none"
           id="path196"
           inkscape:connector-curvature="0"
           d="m 3936.88,10.8203 c 88.56,88.5586 123.84,108.7227 511.2,94.3207 l 0,-0.715 C 4386.16,23.7812 4265.2,90.0195 4114.71,77.0625 l -1.43,0 C 4022.56,69.8633 3991.6,12.9844 3967.84,2.18359 l 0,0 c -23.76,0 -30.96,2.15625 -30.96,8.63671 l 0,0" />
        <path
           style="fill:#231f20;fill-opacity:1;fill-rule:evenodd;stroke:none"
           id="path200"
           inkscape:connector-curvature="0"
           d="m 3692.8,113.062 c 304.56,15.122 303.12,-12.242 352.8,-18.7222 L 4011.04,80.6641 C 3860.56,93.625 3751.12,31.6992 3692.8,113.062 l 0,0" />
        <path
           style="fill:#231f20;fill-opacity:1;fill-rule:evenodd;stroke:none"
           id="path204"
           inkscape:connector-curvature="0"
           d="m 4213.36,8.66016 c -2.16,21.60544 -90,62.64454 -105.84,61.20314 l -31.68,-6.4805 c 30.24,-5.043 83.52,-53.2812 107.28,-63.3632688 l 0,0 c 23.04,0 30.24,2.1640588 30.24,7.9218788 l 0,0.71875" />
        <path
           style="fill:#231f20;fill-opacity:1;fill-rule:evenodd;stroke:none"
           id="path208"
           inkscape:connector-curvature="0"
           d="m 4503.52,768.262 c 9.36,23.761 -53.28,97.922 -79.2,102.961 l -0.72,-0.719 c -2.16,-23.762 59.76,-100.801 79.2,-102.965 l 0.72,0.723" />
        <path
           style="fill:#231f20;fill-opacity:1;fill-rule:evenodd;stroke:none"
           id="path212"
           inkscape:connector-curvature="0"
           d="m 4445.2,776.898 c 0,-41.757 87.12,-107.277 99.36,-95.039 l 0.72,0.723 c 23.76,17.281 5.04,128.879 -25.92,141.84 l -1.44,0 c -13.68,-12.238 16.56,-101.52 11.52,-105.121 l -0.72,-0.715 c -7.2,-8.645 -74.16,75.594 -83.52,59.754 l 0,-1.442" />
        <path
           style="fill:#231f20;fill-opacity:1;fill-rule:evenodd;stroke:none"
           id="path216"
           inkscape:connector-curvature="0"
           d="m 4487.68,687.621 c -5.04,-41.762 79.92,-119.519 94.32,-110.16 l 0.72,0.723 c 28.08,13.675 22.32,126.718 -9.36,144.718 l -1.44,0 c -16.56,-10.078 5.04,-102.961 -0.72,-105.117 l -1.44,-0.723 c -8.64,-7.921 -69.12,86.399 -82.08,72 l 0,-1.441" />
        <path
           style="fill:#231f20;fill-opacity:1;fill-rule:evenodd;stroke:none"
           id="path220"
           inkscape:connector-curvature="0"
           d="m 4520.08,585.383 c -16.56,-47.52 53.28,-147.598 72,-140.403 l 1.44,0.723 c 35.28,7.922 62.64,143.277 30.24,172.797 -20.88,-6.477 -27.36,-122.395 -34.56,-123.836 l -1.44,0 c -11.52,-6.48 -49.68,103.676 -67.68,90.719" />
        <path
           style="fill:#231f20;fill-opacity:1;fill-rule:evenodd;stroke:none"
           id="path224"
           inkscape:connector-curvature="0"
           d="m 4510,357.863 c -34.56,-15.117 -88.56,-147.597 -68.4,-158.398 l 1.44,-0.723 c 32.4,-24.48 167.76,50.399 171.36,98.641 l -0.72,2.16 c -20.88,12.957 -123.84,-68.398 -129.6,-62.645 l -1.44,0.723 c -13.68,5.762 52.56,114.481 27.36,120.242" />
        <path
           style="fill:#231f20;fill-opacity:1;fill-rule:evenodd;stroke:none"
           id="path228"
           inkscape:connector-curvature="0"
           d="m 4420.72,266.422 c -34.56,0 -146.88,-108 -127.44,-123.84 l 1.43,-0.723 c 29.53,-31.679 228.25,-7.195 249.13,34.563 -19.44,18.004 -182.16,-20.879 -187.2,-13.676 l -1.44,0.715 c -14.4,9.363 92.88,90 65.52,102.961" />
        <path
           style="fill:#231f20;fill-opacity:1;fill-rule:evenodd;stroke:none"
           id="path232"
           inkscape:connector-curvature="0"
           d="m 4526.56,466.582 c -20.88,-27.359 11.52,-150.477 32.4,-152.641 l 0.72,0 c 37.44,-10.078 111.6,107.282 90,150.485 -22.32,3.597 -69.84,-105.84 -77.04,-103.684 l -1.44,0 c -13.68,0 -18,110.879 -40.32,107.281 l -4.32,-1.441" />
        <path
           style="fill:#231f20;fill-opacity:1;fill-rule:evenodd;stroke:none"
           id="path236"
           inkscape:connector-curvature="0"
           d="m 3677.68,775.465 c -9.36,24.476 54,98.637 79.2,102.957 l 0.72,0 c 2.16,-23.758 -59.04,-101.524 -79.2,-102.957 l -0.72,0" />
        <path
           style="fill:#231f20;fill-opacity:1;fill-rule:evenodd;stroke:none"
           id="path240"
           inkscape:connector-curvature="0"
           d="M 3736.72,784.102 C 3736,742.344 3648.88,676.82 3636.64,689.062 l 0,0.719 c -23.76,18.004 -5.76,129.598 25.92,142.563 l 1.44,-0.723 c 13.68,-11.519 -17.28,-101.519 -12.24,-104.398 l 0.72,-0.719 c 7.2,-8.641 74.16,75.598 83.52,59.039 l 0.72,-1.441" />
        <path
           style="fill:#231f20;fill-opacity:1;fill-rule:evenodd;stroke:none"
           id="path244"
           inkscape:connector-curvature="0"
           d="m 3694.24,694.824 c 5.04,-41.043 -80.64,-119.519 -95.04,-109.441 l -0.72,0 c -27.36,14.398 -22.32,126.719 10.08,144.719 l 1.44,0 c 15.84,-9.36 -5.04,-102.957 0.72,-105.122 l 0.72,-0.718 c 8.64,-7.2 69.84,86.402 82.08,72 l 0.72,-1.438" />
        <path
           style="fill:#231f20;fill-opacity:1;fill-rule:evenodd;stroke:none"
           id="path248"
           inkscape:connector-curvature="0"
           d="m 3661.84,592.582 c 16.56,-46.801 -53.28,-147.602 -72.72,-139.68 l -0.72,0 c -36,8.641 -62.64,143.282 -30.24,173.52 20.88,-6.481 26.64,-123.121 33.84,-123.84 l 1.44,-0.723 c 12.24,-6.476 50.4,104.403 68.4,90.723" />
        <path
           style="fill:#231f20;fill-opacity:1;fill-rule:evenodd;stroke:none"
           id="path252"
           inkscape:connector-curvature="0"
           d="m 3671.2,365.062 c 35.28,-15.121 89.28,-147.601 68.4,-158.402 l -0.72,-0.719 c -33.12,-24.48 -168.48,51.121 -172.08,99.364 l 1.44,2.156 c 20.88,12.961 123.12,-68.399 129.6,-63.359 l 0.72,0.722 c 14.4,5.758 -52.56,114.477 -27.36,120.238" />
        <path
           style="fill:#231f20;fill-opacity:1;fill-rule:evenodd;stroke:none"
           id="path256"
           inkscape:connector-curvature="0"
           d="m 3760.48,273.625 c 35.28,0 147.6,-108.004 127.44,-123.844 l -0.72,-0.719 c -29.52,-31.679 -228.24,-6.48 -249.12,35.278 19.44,18.004 182.16,-20.879 187.2,-14.399 l 1.44,1.442 c 14.4,9.359 -93.6,90 -66.24,102.242" />
        <path
           style="fill:#231f20;fill-opacity:1;fill-rule:evenodd;stroke:none"
           id="path260"
           inkscape:connector-curvature="0"
           d="m 3654.64,473.781 c 20.88,-26.636 -10.8,-150.48 -32.4,-152.636 l -0.72,0 c -36.72,-9.364 -110.88,107.996 -90,150.476 22.32,3.598 69.84,-105.84 77.04,-103.68 l 1.44,0.719 c 13.68,-0.719 18.72,110.883 40.32,106.559 l 4.32,-1.438" />
        <path
           style="fill:#231f20;fill-opacity:1;fill-rule:evenodd;stroke:none"
           id="path192"
           inkscape:connector-curvature="0"
           d="M 4071.52,678.98 4042,540.02 l 126,55.445 c 13.68,2.156 45.36,2.875 40.32,-33.121 l -45.36,-231.121 c 65.52,9.359 131.04,89.281 141.12,143.996 14.4,104.402 -56.16,178.562 -56.16,178.562 l 38.88,108 c 0,0 95.76,-69.836 101.52,-205.922 l 0,-23.757 c 0,-1.438 0,-2.161 0,-2.879 -10.8,-173.52 -192.96,-214.559 -325.44,-256.321 l 41.04,226.801 c 5.04,18.719 5.04,37.442 -14.4,28.082 l -54.72,-27.363 -7.92,-36.719 0,230.399 c 7.92,3.597 13.68,9.359 14.4,15.121 1.44,6.48 -5.04,10.797 -14.4,10.797 l 0,23.042 c 33.84,11.516 59.04,1.438 44.64,-64.082 z m -44.64,-215.277 -30.96,-139.68 0,365.039 c 2.88,-0.722 5.76,-0.722 8.64,-0.722 l 6.48,30.961 c -5.76,-2.156 -10.8,-4.321 -15.12,-6.477 l 0,15.836 c 10.8,6.481 20.88,11.52 30.96,14.402 l 0,-23.042 c -2.88,0.722 -5.76,0.722 -8.64,0 l -6.48,-30.958 c 5.76,1.442 10.8,2.883 15.12,5.04 l 0,-230.399 z m -30.96,-139.68 -11.52,-56.16 -88.56,-10.078 83.52,412.559 -52.56,0 c 12.24,16.554 41.04,41.758 69.12,58.316 l 0,-15.836 c -5.76,-2.883 -10.8,-6.48 -12.96,-11.519 -4.32,-6.481 3.6,-11.524 12.96,-12.243 l 0,-365.039" />
        <path
           style="fill:none;stroke:#231f20;stroke-width:0.037;stroke-linecap:round;stroke-linejoin:round;stroke-miterlimit:4;stroke-opacity:1;stroke-dasharray:none"
           id="path198"
           inkscape:connector-curvature="0"
           d="m 3936.88,10.8203 c 88.56,88.5586 123.84,108.7227 511.2,94.3207 l 0,-0.715 C 4386.16,23.7812 4265.2,90.0195 4114.71,77.0625 l -1.43,0 C 4022.56,69.8633 3991.6,12.9844 3967.84,2.18359 l 0,0 c -23.76,0 -30.96,2.15625 -30.96,8.63671 l 0,0 z" />
        <path
           style="fill:none;stroke:#231f20;stroke-width:0.037;stroke-linecap:round;stroke-linejoin:round;stroke-miterlimit:4;stroke-opacity:1;stroke-dasharray:none"
           id="path202"
           inkscape:connector-curvature="0"
           d="m 3692.8,113.062 c 304.56,15.122 303.12,-12.242 352.8,-18.7222 L 4011.04,80.6641 C 3860.56,93.625 3751.12,31.6992 3692.8,113.062 l 0,0 z" />
        <path
           style="fill:none;stroke:#231f20;stroke-width:0.037;stroke-linecap:round;stroke-linejoin:round;stroke-miterlimit:4;stroke-opacity:1;stroke-dasharray:none"
           id="path206"
           inkscape:connector-curvature="0"
           d="m 4213.36,8.66016 c -2.16,21.60544 -90,62.64454 -105.84,61.20314 l -31.68,-6.4805 c 30.24,-5.043 83.52,-53.2812 107.28,-63.3632688 l 0,0 c 23.04,0 30.24,2.1640588 30.24,7.9218788 l 0,0.71875 z" />
        <path
           style="fill:none;stroke:#231f20;stroke-width:0.037;stroke-linecap:round;stroke-linejoin:round;stroke-miterlimit:4;stroke-opacity:1;stroke-dasharray:none"
           id="path210"
           inkscape:connector-curvature="0"
           d="m 4503.52,768.262 c 9.36,23.761 -53.28,97.922 -79.2,102.961 l -0.72,-0.719 c -2.16,-23.762 59.76,-100.801 79.2,-102.965 l 0.72,0.723 z" />
        <path
           style="fill:none;stroke:#231f20;stroke-width:0.037;stroke-linecap:round;stroke-linejoin:round;stroke-miterlimit:4;stroke-opacity:1;stroke-dasharray:none"
           id="path214"
           inkscape:connector-curvature="0"
           d="m 4445.2,776.898 c 0,-41.757 87.12,-107.277 99.36,-95.039 l 0.72,0.723 c 23.76,17.281 5.04,128.879 -25.92,141.84 l -1.44,0 c -13.68,-12.238 16.56,-101.52 11.52,-105.121 l -0.72,-0.715 c -7.2,-8.645 -74.16,75.594 -83.52,59.754 l 0,-1.442 z" />
        <path
           style="fill:none;stroke:#231f20;stroke-width:0.037;stroke-linecap:round;stroke-linejoin:round;stroke-miterlimit:4;stroke-opacity:1;stroke-dasharray:none"
           id="path218"
           inkscape:connector-curvature="0"
           d="m 4487.68,687.621 c -5.04,-41.762 79.92,-119.519 94.32,-110.16 l 0.72,0.723 c 28.08,13.675 22.32,126.718 -9.36,144.718 l -1.44,0 c -16.56,-10.078 5.04,-102.961 -0.72,-105.117 l -1.44,-0.723 c -8.64,-7.921 -69.12,86.399 -82.08,72 l 0,-1.441 z" />
        <path
           style="fill:none;stroke:#231f20;stroke-width:0.037;stroke-linecap:round;stroke-linejoin:round;stroke-miterlimit:4;stroke-opacity:1;stroke-dasharray:none"
           id="path222"
           inkscape:connector-curvature="0"
           d="m 4520.08,585.383 c -16.56,-47.52 53.28,-147.598 72,-140.403 l 1.44,0.723 c 35.28,7.922 62.64,143.277 30.24,172.797 -20.88,-6.477 -27.36,-122.395 -34.56,-123.836 l -1.44,0 c -11.52,-6.48 -49.68,103.676 -67.68,90.719 z" />
        <path
           style="fill:none;stroke:#231f20;stroke-width:0.037;stroke-linecap:round;stroke-linejoin:round;stroke-miterlimit:4;stroke-opacity:1;stroke-dasharray:none"
           id="path226"
           inkscape:connector-curvature="0"
           d="m 4510,357.863 c -34.56,-15.117 -88.56,-147.597 -68.4,-158.398 l 1.44,-0.723 c 32.4,-24.48 167.76,50.399 171.36,98.641 l -0.72,2.16 c -20.88,12.957 -123.84,-68.398 -129.6,-62.645 l -1.44,0.723 c -13.68,5.762 52.56,114.481 27.36,120.242 z" />
        <path
           style="fill:none;stroke:#231f20;stroke-width:0.037;stroke-linecap:round;stroke-linejoin:round;stroke-miterlimit:4;stroke-opacity:1;stroke-dasharray:none"
           id="path230"
           inkscape:connector-curvature="0"
           d="m 4420.72,266.422 c -34.56,0 -146.88,-108 -127.44,-123.84 l 1.43,-0.723 c 29.53,-31.679 228.25,-7.195 249.13,34.563 -19.44,18.004 -182.16,-20.879 -187.2,-13.676 l -1.44,0.715 c -14.4,9.363 92.88,90 65.52,102.961 z" />
        <path
           style="fill:none;stroke:#231f20;stroke-width:0.037;stroke-linecap:round;stroke-linejoin:round;stroke-miterlimit:4;stroke-opacity:1;stroke-dasharray:none"
           id="path234"
           inkscape:connector-curvature="0"
           d="m 4526.56,466.582 c -20.88,-27.359 11.52,-150.477 32.4,-152.641 l 0.72,0 c 37.44,-10.078 111.6,107.282 90,150.485 -22.32,3.597 -69.84,-105.84 -77.04,-103.684 l -1.44,0 c -13.68,0 -18,110.879 -40.32,107.281 l -4.32,-1.441 z" />
        <path
           style="fill:none;stroke:#231f20;stroke-width:0.037;stroke-linecap:round;stroke-linejoin:round;stroke-miterlimit:4;stroke-opacity:1;stroke-dasharray:none"
           id="path238"
           inkscape:connector-curvature="0"
           d="m 3677.68,775.465 c -9.36,24.476 54,98.637 79.2,102.957 l 0.72,0 c 2.16,-23.758 -59.04,-101.524 -79.2,-102.957 l -0.72,0 z" />
        <path
           style="fill:none;stroke:#231f20;stroke-width:0.037;stroke-linecap:round;stroke-linejoin:round;stroke-miterlimit:4;stroke-opacity:1;stroke-dasharray:none"
           id="path242"
           inkscape:connector-curvature="0"
           d="M 3736.72,784.102 C 3736,742.344 3648.88,676.82 3636.64,689.062 l 0,0.719 c -23.76,18.004 -5.76,129.598 25.92,142.563 l 1.44,-0.723 c 13.68,-11.519 -17.28,-101.519 -12.24,-104.398 l 0.72,-0.719 c 7.2,-8.641 74.16,75.598 83.52,59.039 l 0.72,-1.441 z" />
        <path
           style="fill:none;stroke:#231f20;stroke-width:0.037;stroke-linecap:round;stroke-linejoin:round;stroke-miterlimit:4;stroke-opacity:1;stroke-dasharray:none"
           id="path246"
           inkscape:connector-curvature="0"
           d="m 3694.24,694.824 c 5.04,-41.043 -80.64,-119.519 -95.04,-109.441 l -0.72,0 c -27.36,14.398 -22.32,126.719 10.08,144.719 l 1.44,0 c 15.84,-9.36 -5.04,-102.957 0.72,-105.122 l 0.72,-0.718 c 8.64,-7.2 69.84,86.402 82.08,72 l 0.72,-1.438 z" />
        <path
           style="fill:none;stroke:#231f20;stroke-width:0.037;stroke-linecap:round;stroke-linejoin:round;stroke-miterlimit:4;stroke-opacity:1;stroke-dasharray:none"
           id="path250"
           inkscape:connector-curvature="0"
           d="m 3661.84,592.582 c 16.56,-46.801 -53.28,-147.602 -72.72,-139.68 l -0.72,0 c -36,8.641 -62.64,143.282 -30.24,173.52 20.88,-6.481 26.64,-123.121 33.84,-123.84 l 1.44,-0.723 c 12.24,-6.476 50.4,104.403 68.4,90.723 z" />
        <path
           style="fill:none;stroke:#231f20;stroke-width:0.037;stroke-linecap:round;stroke-linejoin:round;stroke-miterlimit:4;stroke-opacity:1;stroke-dasharray:none"
           id="path254"
           inkscape:connector-curvature="0"
           d="m 3671.2,365.062 c 35.28,-15.121 89.28,-147.601 68.4,-158.402 l -0.72,-0.719 c -33.12,-24.48 -168.48,51.121 -172.08,99.364 l 1.44,2.156 c 20.88,12.961 123.12,-68.399 129.6,-63.359 l 0.72,0.722 c 14.4,5.758 -52.56,114.477 -27.36,120.238 z" />
        <path
           style="fill:none;stroke:#231f20;stroke-width:0.037;stroke-linecap:round;stroke-linejoin:round;stroke-miterlimit:4;stroke-opacity:1;stroke-dasharray:none"
           id="path258"
           inkscape:connector-curvature="0"
           d="m 3760.48,273.625 c 35.28,0 147.6,-108.004 127.44,-123.844 l -0.72,-0.719 c -29.52,-31.679 -228.24,-6.48 -249.12,35.278 19.44,18.004 182.16,-20.879 187.2,-14.399 l 1.44,1.442 c 14.4,9.359 -93.6,90 -66.24,102.242 z" />
        <path
           style="fill:none;stroke:#231f20;stroke-width:0.037;stroke-linecap:round;stroke-linejoin:round;stroke-miterlimit:4;stroke-opacity:1;stroke-dasharray:none"
           id="path262"
           inkscape:connector-curvature="0"
           d="m 3654.64,473.781 c 20.88,-26.636 -10.8,-150.48 -32.4,-152.636 l -0.72,0 c -36.72,-9.364 -110.88,107.996 -90,150.476 22.32,3.598 69.84,-105.84 77.04,-103.68 l 1.44,0.719 c 13.68,-0.719 18.72,110.883 40.32,106.559 l 4.32,-1.438 z" />
      </g>
    </g>
  </g>
</svg>
